# xmcd CD database file
#
# Track frame offsets:
#	182
#	19507
#	35380
#	54812
#	71985
#	91172
#	115750
#	129915
#	158812
#	180935
#
# Disc length: 2668 seconds
#
# Revision: 2
# Processed by: cddbd v1.5.1PL0 Copyright (c) Steve Scherf et al.
# Submitted via: CDex 1.51
#
DISCID=6e0a6a0a
DTITLE=Lizard - Rock'n'Roll Refugees
DYEAR=1991
DGENRE=Blues
TTITLE0=prisoner of love
TTITLE1=white cross
TTITLE2=fly away
TTITLE3=willie boy
TTITLE4=freeway
TTITLE5=ridden down
TTITLE6=ordinary southern man
TTITLE7=harley rider
TTITLE8=morning
TTITLE9=no time
EXTD=YEAR: 1991
EXTT0=
EXTT1=
EXTT2=
EXTT3=
EXTT4=
EXTT5=
EXTT6=
EXTT7=
EXTT8=
EXTT9=
PLAYORDER=
